<?xml version="1.0" encoding="UTF-8"?>
<svg width="21px" height="34px" viewBox="0 0 21 34" version="1.1" xmlns="http://www.w3.org/2000/svg" xmlns:xlink="http://www.w3.org/1999/xlink">
    <!-- Generator: Sketch 43.1 (39012) - http://www.bohemiancoding.com/sketch -->
    <title>Logo</title>
    <desc>Created with Sketch.</desc>
    <defs></defs>
    <g id="Page-1" stroke="none" stroke-width="1" fill="none" fill-rule="evenodd">
        <g id="HOME" transform="translate(-130.000000, -8.000000)" fill="#FFFFFF">
            <g id="NAV">
                <g id="Logo" transform="translate(130.000000, 8.035156)">
                    <path d="M4.1014,3.2276 C4.1444,3.2266 4.1814,3.2606 4.1844,3.3036 L4.4494,6.5886 C4.4584,6.7036 4.6214,6.7186 4.6524,6.6076 L6.4304,0.3276 C6.4554,0.2366 6.5384,0.1746 6.6324,0.1746 L10.8124,0.1746 C10.9254,0.1746 11.0174,0.2626 11.0224,0.3756 L11.4214,9.8406 C11.4344,10.1536 11.8734,10.2146 11.9704,9.9156 L15.0854,0.3546 C15.1194,0.2526 15.2254,0.1916 15.3304,0.2146 L20.3284,1.3026 C20.4294,1.3246 20.5004,1.4156 20.4934,1.5196 C20.3804,3.2566 20.1654,17.8436 20.3034,27.1796 C20.3054,27.3006 20.1974,27.3926 20.0784,27.3736 C18.0614,27.0556 16.8324,26.8226 16.4014,26.6496 C16.3184,26.6166 16.2654,26.5356 16.2684,26.4466 C16.2684,26.4466 15.8754,17.7946 15.9734,11.8476 C15.9764,11.7176 15.7914,11.6926 15.7584,11.8186 C14.2464,17.6116 12.1374,25.6466 12.1374,25.6466 C12.1124,25.7496 12.0154,25.8186 11.9104,25.8066 L8.1104,24.9386 C8.0094,24.9276 7.9314,24.8456 7.9244,24.7446 C7.9244,24.7446 7.5614,16.7326 7.2124,10.9656 C7.2054,10.8436 7.0334,10.8226 6.9984,10.9406 C5.8454,14.8316 3.7904,23.8546 3.7904,23.8546 C3.7634,23.9676 3.6494,24.0366 3.5364,24.0086 L0.1344,23.1676 C0.0564,23.1486 0.0034,23.0776 0.0064,22.9976 C0.0694,21.6026 0.2784,10.3736 0.0964,3.0106 C0.0954,2.9636 0.1334,2.9256 0.1804,2.9256 L4.1014,3.2276 Z" id="Fill-2"></path>
                    <path d="M19.9627,33.0717 L0.3627,29.1297 C0.1557,29.0877 0.0067,28.9057 0.0067,28.6947 L0.0067,26.2267 C0.0067,25.9467 0.2627,25.7367 0.5377,25.7917 L20.1377,29.7337 C20.3447,29.7757 20.4937,29.9577 20.4937,30.1687 L20.4937,32.6367 C20.4937,32.9167 20.2377,33.1267 19.9627,33.0717" id="Fill-4"></path>
                </g>
            </g>
        </g>
    </g>
</svg>